<?xml version="1.0" standalone="no"?>
<!DOCTYPE svg PUBLIC "-//W3C//DTD SVG 20010904//EN"
 "http://www.w3.org/TR/2001/REC-SVG-20010904/DTD/svg10.dtd">
<svg version="1.0" xmlns="http://www.w3.org/2000/svg"
 width="2500.000000pt" height="2500.000000pt" viewBox="0 0 2500.000000 2500.000000"
 preserveAspectRatio="xMidYMid meet">

<g transform="translate(0.000000,2500.000000) scale(0.100000,-0.100000)"
fill="#000000" stroke="none">
<path d="M9027 13588 c-30 -51 -341 -579 -691 -1172 -350 -593 -636 -1080
-636 -1082 0 -2 193 -4 429 -4 l428 0 149 250 148 250 1720 -2 1720 -3 131
-245 130 -245 414 -3 c391 -2 413 -1 407 15 -4 10 -287 539 -629 1176 l-621
1157 -1522 0 -1523 0 -54 -92z m2806 -810 l156 -333 -1406 -3 c-774 -1 -1408
0 -1410 2 -4 3 247 471 334 624 l24 42 1073 0 1073 0 156 -332z"/>
<path d="M13930 12505 l0 -1175 380 0 380 0 2 875 3 875 738 -540 738 -540
388 0 389 0 768 540 769 540 3 -875 2 -875 380 0 380 0 0 1175 0 1175 -559 0
-558 0 -768 -528 -768 -529 -796 529 -796 528 -537 0 -538 0 0 -1175z"/>
<path d="M20080 12505 l0 -1175 2275 0 2275 0 0 730 0 730 -1355 0 -1355 0 0
-285 0 -285 980 0 980 0 0 -150 0 -150 -1520 0 -1520 0 0 595 0 595 1895 0
1895 0 0 285 0 285 -2275 0 -2275 0 0 -1175z"/>
<path d="M1062 12498 l-692 -1173 1307 -3 c1038 -2 1310 1 1319 10 14 15 1364
2323 1364 2332 0 3 -587 6 -1304 6 l-1303 0 -691 -1172z"/>
<path d="M3895 12503 c-379 -643 -690 -1171 -692 -1175 -2 -5 238 -8 534 -8
l538 1 678 1159 c372 637 680 1166 683 1174 6 14 -46 16 -524 16 l-530 0 -687
-1167z"/>
<path d="M5225 12509 c-374 -639 -684 -1168 -688 -1175 -7 -12 50 -14 351 -14
l359 0 669 1143 c367 628 677 1157 687 1175 l19 32 -359 0 -358 0 -680 -1161z"/>
<path d="M6967 13663 c-40 -66 -1367 -2337 -1367 -2339 0 -3 117 -3 261 -2
l261 3 694 1169 c382 643 694 1170 694 1172 0 8 -539 4 -543 -3z"/>
<path d="M7240 12518 c-371 -634 -680 -1163 -688 -1176 l-15 -22 223 2 222 3
684 1168 c376 643 684 1171 684 1173 0 2 -98 4 -218 4 l-218 0 -674 -1152z"/>
</g>
</svg>
